# xmcd
#
# Track frame offsets: 
#        150
#        14862
#        26602
#        43230
#        60646
#        72793
#        82376
#        106549
#        126359
#        141679
#        159952
#        178691
#        191189
#        209171
#        221456
#        235994
#
# Disc length: 3383 seconds
#
# Revision: 0
# Processed by: cddbd v1.5.2PL0 Copyright (c) Steve Scherf et al.
# Submitted via: ExactAudioCopy v0.99pb3
#
DISCID=fc0d3510
DTITLE=Various Artist - Crnom Gorom 1
DYEAR=2004
DGENRE=Country
TTITLE0=Ljubomir Durovic/Devere cuvaj mladu
TTITLE1=Pljevaljski Tamburasi/Ugrijala Mjesecina
TTITLE2=Orkestra Podgorica i Sukrija Zuti Serhatlic/Zapjevala sojka pt
TTITLE2=ica
TTITLE3=Ksenija Cicvaric/U ove dvore, vesele
TTITLE4=Bozidar Ivanisevic/Kad prosetam crnom gorom
TTITLE5=Ismet Krcic/Tekla voda na valove
TTITLE6=Zdravko Duranovic/Mlada jelka ljubi janka
TTITLE7=Dimitrije - Bato Radulovic/Biser juznog mora
TTITLE8=Aksentije Soskic/Detic
TTITLE9=Pljevaljski Tamburasi/Milica, Jedna u Majke
TTITLE10=Orkestra Podgorica i Sukrija Zuti Serhatlic/Blago tebi cvijet
TTITLE10=karanfile
TTITLE11=Bozidar Ivanisevic/Donji kraj
TTITLE12=Ismet Krcic/Zora zori, dan se bijeli
TTITLE13=Dimitrije - Bato Radulovic/Cobanine, lijepa devojko
TTITLE14=Aksentije Soskic/Pjesma Njegosu
TTITLE15=Ksenija Cicvaric/Setala sam gore, dole niz sarenu bastu
EXTD=
EXTT0=
EXTT1=
EXTT2=
EXTT3=
EXTT4=
EXTT5=
EXTT6=
EXTT7=
EXTT8=
EXTT9=
EXTT10=
EXTT11=
EXTT12=
EXTT13=
EXTT14=
EXTT15=
PLAYORDER=
